<svg aria-roledescription="flowchart-v2" role="graphics-document document" viewBox="-8 -50 1108.3671875 685.5" style="max-width: 1108.37px; background-color: white;" xmlns:xlink="http://www.w3.org/1999/xlink" xmlns="http://www.w3.org/2000/svg" width="100%" id="my-svg"><style>#my-svg{font-family:"trebuchet ms",verdana,arial,sans-serif;font-size:16px;fill:#333;}#my-svg .error-icon{fill:#552222;}#my-svg .error-text{fill:#552222;stroke:#552222;}#my-svg .edge-thickness-normal{stroke-width:2px;}#my-svg .edge-thickness-thick{stroke-width:3.5px;}#my-svg .edge-pattern-solid{stroke-dasharray:0;}#my-svg .edge-pattern-dashed{stroke-dasharray:3;}#my-svg .edge-pattern-dotted{stroke-dasharray:2;}#my-svg .marker{fill:#333333;stroke:#333333;}#my-svg .marker.cross{stroke:#333333;}#my-svg svg{font-family:"trebuchet ms",verdana,arial,sans-serif;font-size:16px;}#my-svg .label{font-family:"trebuchet ms",verdana,arial,sans-serif;color:#333;}#my-svg .cluster-label text{fill:#333;}#my-svg .cluster-label span,#my-svg p{color:#333;}#my-svg .label text,#my-svg span,#my-svg p{fill:#333;color:#333;}#my-svg .node rect,#my-svg .node circle,#my-svg .node ellipse,#my-svg .node polygon,#my-svg .node path{fill:#ECECFF;stroke:#9370DB;stroke-width:1px;}#my-svg .flowchart-label text{text-anchor:middle;}#my-svg .node .katex path{fill:#000;stroke:#000;stroke-width:1px;}#my-svg .node .label{text-align:center;}#my-svg .node.clickable{cursor:pointer;}#my-svg .arrowheadPath{fill:#333333;}#my-svg .edgePath .path{stroke:#333333;stroke-width:2.0px;}#my-svg .flowchart-link{stroke:#333333;fill:none;}#my-svg .edgeLabel{background-color:#e8e8e8;text-align:center;}#my-svg .edgeLabel rect{opacity:0.5;background-color:#e8e8e8;fill:#e8e8e8;}#my-svg .labelBkg{background-color:rgba(232, 232, 232, 0.5);}#my-svg .cluster rect{fill:#ffffde;stroke:#aaaa33;stroke-width:1px;}#my-svg .cluster text{fill:#333;}#my-svg .cluster span,#my-svg p{color:#333;}#my-svg div.mermaidTooltip{position:absolute;text-align:center;max-width:200px;padding:2px;font-family:"trebuchet ms",verdana,arial,sans-serif;font-size:12px;background:hsl(80, 100%, 96.2745098039%);border:1px solid #aaaa33;border-radius:2px;pointer-events:none;z-index:100;}#my-svg .flowchartTitleText{text-anchor:middle;font-size:18px;fill:#333;}#my-svg :root{--mermaid-font-family:"trebuchet ms",verdana,arial,sans-serif;}#my-svg .raw&gt;*{fill:#f1f5f9!important;stroke:#94a3b8!important;color:#1e293b!important;}#my-svg .raw span{fill:#f1f5f9!important;stroke:#94a3b8!important;color:#1e293b!important;}#my-svg .raw tspan{fill:#1e293b!important;}#my-svg .norm&gt;*{fill:#dbeafe!important;stroke:#3b82f6!important;color:#1e3a5f!important;}#my-svg .norm span{fill:#dbeafe!important;stroke:#3b82f6!important;color:#1e3a5f!important;}#my-svg .norm tspan{fill:#1e3a5f!important;}#my-svg .weight&gt;*{fill:#fef9c3!important;stroke:#ca8a04!important;color:#422006!important;font-weight:bold!important;}#my-svg .weight span{fill:#fef9c3!important;stroke:#ca8a04!important;color:#422006!important;font-weight:bold!important;}#my-svg .weight tspan{fill:#422006!important;}#my-svg .out&gt;*{fill:#dcfce7!important;stroke:#16a34a!important;color:#14532d!important;}#my-svg .out span{fill:#dcfce7!important;stroke:#16a34a!important;color:#14532d!important;}#my-svg .out tspan{fill:#14532d!important;}</style><g><marker orient="auto" markerHeight="12" markerWidth="12" markerUnits="userSpaceOnUse" refY="5" refX="6" viewBox="0 0 10 10" class="marker flowchart" id="my-svg_flowchart-pointEnd"><path style="stroke-width: 1; stroke-dasharray: 1, 0;" class="arrowMarkerPath" d="M 0 0 L 10 5 L 0 10 z"/></marker><marker orient="auto" markerHeight="12" markerWidth="12" markerUnits="userSpaceOnUse" refY="5" refX="4.5" viewBox="0 0 10 10" class="marker flowchart" id="my-svg_flowchart-pointStart"><path style="stroke-width: 1; stroke-dasharray: 1, 0;" class="arrowMarkerPath" d="M 0 5 L 10 10 L 10 0 z"/></marker><marker orient="auto" markerHeight="11" markerWidth="11" markerUnits="userSpaceOnUse" refY="5" refX="11" viewBox="0 0 10 10" class="marker flowchart" id="my-svg_flowchart-circleEnd"><circle style="stroke-width: 1; stroke-dasharray: 1, 0;" class="arrowMarkerPath" r="5" cy="5" cx="5"/></marker><marker orient="auto" markerHeight="11" markerWidth="11" markerUnits="userSpaceOnUse" refY="5" refX="-1" viewBox="0 0 10 10" class="marker flowchart" id="my-svg_flowchart-circleStart"><circle style="stroke-width: 1; stroke-dasharray: 1, 0;" class="arrowMarkerPath" r="5" cy="5" cx="5"/></marker><marker orient="auto" markerHeight="11" markerWidth="11" markerUnits="userSpaceOnUse" refY="5.2" refX="12" viewBox="0 0 11 11" class="marker cross flowchart" id="my-svg_flowchart-crossEnd"><path style="stroke-width: 2; stroke-dasharray: 1, 0;" class="arrowMarkerPath" d="M 1,1 l 9,9 M 10,1 l -9,9"/></marker><marker orient="auto" markerHeight="11" markerWidth="11" markerUnits="userSpaceOnUse" refY="5.2" refX="-1" viewBox="0 0 11 11" class="marker cross flowchart" id="my-svg_flowchart-crossStart"><path style="stroke-width: 2; stroke-dasharray: 1, 0;" class="arrowMarkerPath" d="M 1,1 l 9,9 M 10,1 l -9,9"/></marker><g class="root"><g class="clusters"><g id="NORM" class="cluster default flowchart-label"><rect height="121" width="1092.3671875" y="133.5" x="0" ry="0" rx="0" style=""/><g transform="translate(450.8984375, 133.5)" class="cluster-label"><foreignObject height="18.5" width="190.5703125"><div style="display: inline-block; white-space: nowrap;" xmlns="http://www.w3.org/1999/xhtml"><span class="nodeLabel">Step 1 — Normalise to 0..1</span></div></foreignObject></g></g><g id="IN" class="cluster default flowchart-label"><rect height="83.5" width="1063.0859375" y="0" x="21.7578125" ry="0" rx="0" style=""/><g transform="translate(470.31640625, 0)" class="cluster-label"><foreignObject height="18.5" width="165.96875"><div style="display: inline-block; white-space: nowrap;" xmlns="http://www.w3.org/1999/xhtml"><span class="nodeLabel">Raw Metrics  (N tickers)</span></div></foreignObject></g></g></g><g class="edgePaths"><path marker-end="url(#my-svg_flowchart-pointEnd)" style="fill:none;" class="edge-thickness-normal edge-pattern-solid flowchart-link LS-AR LE-NR" id="L-AR-NR-0" d="M116.566,58.5L116.566,62.667C116.566,66.833,116.566,75.167,116.566,83.5C116.566,91.833,116.566,100.167,116.566,108.5C116.566,116.833,116.566,125.167,116.566,132.617C116.566,140.067,116.566,146.633,116.566,149.917L116.566,153.2"/><path marker-end="url(#my-svg_flowchart-pointEnd)" style="fill:none;" class="edge-thickness-normal edge-pattern-solid flowchart-link LS-VO LE-NV" id="L-VO-NV-0" d="M325.383,58.5L325.383,62.667C325.383,66.833,325.383,75.167,325.383,83.5C325.383,91.833,325.383,100.167,325.383,108.5C325.383,116.833,325.383,125.167,325.383,132.617C325.383,140.067,325.383,146.633,325.383,149.917L325.383,153.2"/><path marker-end="url(#my-svg_flowchart-pointEnd)" style="fill:none;" class="edge-thickness-normal edge-pattern-solid flowchart-link LS-SR LE-NS" id="L-SR-NS-0" d="M531.574,58.5L531.574,62.667C531.574,66.833,531.574,75.167,531.574,83.5C531.574,91.833,531.574,100.167,531.574,108.5C531.574,116.833,531.574,125.167,531.574,132.617C531.574,140.067,531.574,146.633,531.574,149.917L531.574,153.2"/><path marker-end="url(#my-svg_flowchart-pointEnd)" style="fill:none;" class="edge-thickness-normal edge-pattern-solid flowchart-link LS-DR LE-ND" id="L-DR-ND-0" d="M752.375,58.5L752.375,62.667C752.375,66.833,752.375,75.167,752.375,83.5C752.375,91.833,752.375,100.167,752.375,108.5C752.375,116.833,752.375,125.167,752.375,132.617C752.375,140.067,752.375,146.633,752.375,149.917L752.375,153.2"/><path marker-end="url(#my-svg_flowchart-pointEnd)" style="fill:none;" class="edge-thickness-normal edge-pattern-solid flowchart-link LS-MO LE-NM" id="L-MO-NM-0" d="M975.801,58.5L975.801,62.667C975.801,66.833,975.801,75.167,975.801,83.5C975.801,91.833,975.801,100.167,975.801,108.5C975.801,116.833,975.801,125.167,975.801,132.617C975.801,140.067,975.801,146.633,975.801,149.917L975.801,153.2"/><path marker-end="url(#my-svg_flowchart-pointEnd)" style="fill:none;" class="edge-thickness-normal edge-pattern-solid flowchart-link LS-NR LE-FORMULA" id="L-NR-FORMULA-0" d="M116.566,229.5L116.566,233.667C116.566,237.833,116.566,246.167,116.566,254.5C116.566,262.833,116.566,271.167,152.471,287.056C188.375,302.946,260.184,326.391,296.089,338.114L331.993,349.837"/><path marker-end="url(#my-svg_flowchart-pointEnd)" style="fill:none;" class="edge-thickness-normal edge-pattern-solid flowchart-link LS-NV LE-FORMULA" id="L-NV-FORMULA-0" d="M325.383,229.5L325.383,233.667C325.383,237.833,325.383,246.167,325.383,254.5C325.383,262.833,325.383,271.167,330.985,279.015C336.587,286.863,347.792,294.226,353.394,297.908L358.996,301.589"/><path marker-end="url(#my-svg_flowchart-pointEnd)" style="fill:none;" class="edge-thickness-normal edge-pattern-solid flowchart-link LS-NS LE-FORMULA" id="L-NS-FORMULA-0" d="M531.574,229.5L531.574,233.667C531.574,237.833,531.574,246.167,531.574,254.5C531.574,262.833,531.574,271.167,531.574,278.617C531.574,286.067,531.574,292.633,531.574,295.917L531.574,299.2"/><path marker-end="url(#my-svg_flowchart-pointEnd)" style="fill:none;" class="edge-thickness-normal edge-pattern-solid flowchart-link LS-ND LE-FORMULA" id="L-ND-FORMULA-0" d="M752.375,229.5L752.375,233.667C752.375,237.833,752.375,246.167,752.375,254.5C752.375,262.833,752.375,271.167,746.338,279.038C740.301,286.909,728.228,294.319,722.191,298.023L716.154,301.728"/><path marker-end="url(#my-svg_flowchart-pointEnd)" style="fill:none;" class="edge-thickness-normal edge-pattern-solid flowchart-link LS-NM LE-FORMULA" id="L-NM-FORMULA-0" d="M975.801,229.5L975.801,233.667C975.801,237.833,975.801,246.167,975.801,254.5C975.801,262.833,975.801,271.167,935.032,287.769C894.263,304.371,812.725,329.242,771.956,341.678L731.187,354.113"/><path marker-end="url(#my-svg_flowchart-pointEnd)" style="fill:none;" class="edge-thickness-normal edge-pattern-solid flowchart-link LS-FORMULA LE-RANK" id="L-FORMULA-RANK-0" d="M531.574,525.5L531.574,529.667C531.574,533.833,531.574,542.167,531.574,549.617C531.574,557.067,531.574,563.633,531.574,566.917L531.574,570.2"/></g><g class="edgeLabels"><g class="edgeLabel"><g transform="translate(0, 0)" class="label"><foreignObject height="0" width="0"><div style="display: inline-block; white-space: nowrap;" xmlns="http://www.w3.org/1999/xhtml"><span class="edgeLabel"></span></div></foreignObject></g></g><g class="edgeLabel"><g transform="translate(0, 0)" class="label"><foreignObject height="0" width="0"><div style="display: inline-block; white-space: nowrap;" xmlns="http://www.w3.org/1999/xhtml"><span class="edgeLabel"></span></div></foreignObject></g></g><g class="edgeLabel"><g transform="translate(0, 0)" class="label"><foreignObject height="0" width="0"><div style="display: inline-block; white-space: nowrap;" xmlns="http://www.w3.org/1999/xhtml"><span class="edgeLabel"></span></div></foreignObject></g></g><g class="edgeLabel"><g transform="translate(0, 0)" class="label"><foreignObject height="0" width="0"><div style="display: inline-block; white-space: nowrap;" xmlns="http://www.w3.org/1999/xhtml"><span class="edgeLabel"></span></div></foreignObject></g></g><g class="edgeLabel"><g transform="translate(0, 0)" class="label"><foreignObject height="0" width="0"><div style="display: inline-block; white-space: nowrap;" xmlns="http://www.w3.org/1999/xhtml"><span class="edgeLabel"></span></div></foreignObject></g></g><g class="edgeLabel"><g transform="translate(0, 0)" class="label"><foreignObject height="0" width="0"><div style="display: inline-block; white-space: nowrap;" xmlns="http://www.w3.org/1999/xhtml"><span class="edgeLabel"></span></div></foreignObject></g></g><g class="edgeLabel"><g transform="translate(0, 0)" class="label"><foreignObject height="0" width="0"><div style="display: inline-block; white-space: nowrap;" xmlns="http://www.w3.org/1999/xhtml"><span class="edgeLabel"></span></div></foreignObject></g></g><g class="edgeLabel"><g transform="translate(0, 0)" class="label"><foreignObject height="0" width="0"><div style="display: inline-block; white-space: nowrap;" xmlns="http://www.w3.org/1999/xhtml"><span class="edgeLabel"></span></div></foreignObject></g></g><g class="edgeLabel"><g transform="translate(0, 0)" class="label"><foreignObject height="0" width="0"><div style="display: inline-block; white-space: nowrap;" xmlns="http://www.w3.org/1999/xhtml"><span class="edgeLabel"></span></div></foreignObject></g></g><g class="edgeLabel"><g transform="translate(0, 0)" class="label"><foreignObject height="0" width="0"><div style="display: inline-block; white-space: nowrap;" xmlns="http://www.w3.org/1999/xhtml"><span class="edgeLabel"></span></div></foreignObject></g></g><g class="edgeLabel"><g transform="translate(0, 0)" class="label"><foreignObject height="0" width="0"><div style="display: inline-block; white-space: nowrap;" xmlns="http://www.w3.org/1999/xhtml"><span class="edgeLabel"></span></div></foreignObject></g></g></g><g class="nodes"><g transform="translate(116.56640625, 194)" data-id="NR" data-node="true" id="flowchart-NR-5" class="node default norm flowchart-label"><rect height="71" width="163.1328125" y="-35.5" x="-81.56640625" ry="0" rx="0" style="" class="basic label-container"/><g transform="translate(-74.06640625, -28)" style="" class="label"><rect/><foreignObject height="56" width="148.1328125"><div style="display: inline-block; white-space: nowrap;" xmlns="http://www.w3.org/1999/xhtml"><span class="nodeLabel">Return_Score<br />rank(pct=True)<br />↑ outlier-robust rank</span></div></foreignObject></g></g><g transform="translate(325.3828125, 194)" data-id="NV" data-node="true" id="flowchart-NV-6" class="node default norm flowchart-label"><rect height="71" width="154.5" y="-35.5" x="-77.25" ry="0" rx="0" style="" class="basic label-container"/><g transform="translate(-69.75, -28)" style="" class="label"><rect/><foreignObject height="56" width="139.5"><div style="display: inline-block; white-space: nowrap;" xmlns="http://www.w3.org/1999/xhtml"><span class="nodeLabel">Vol_Score<br />1 − norm(Volatility)<br />↓ lower = better</span></div></foreignObject></g></g><g transform="translate(531.57421875, 194)" data-id="NS" data-node="true" id="flowchart-NS-7" class="node default norm flowchart-label"><rect height="71" width="157.8828125" y="-35.5" x="-78.94140625" ry="0" rx="0" style="" class="basic label-container"/><g transform="translate(-71.44140625, -28)" style="" class="label"><rect/><foreignObject height="56" width="142.8828125"><div style="display: inline-block; white-space: nowrap;" xmlns="http://www.w3.org/1999/xhtml"><span class="nodeLabel">Sharpe_Score<br />norm(Sharpe_Ratio)<br />↑ higher = better</span></div></foreignObject></g></g><g transform="translate(752.375, 194)" data-id="ND" data-node="true" id="flowchart-ND-8" class="node default norm flowchart-label"><rect height="71" width="183.71875" y="-35.5" x="-91.859375" ry="0" rx="0" style="" class="basic label-container"/><g transform="translate(-84.359375, -28)" style="" class="label"><rect/><foreignObject height="56" width="168.71875"><div style="display: inline-block; white-space: nowrap;" xmlns="http://www.w3.org/1999/xhtml"><span class="nodeLabel">Drawdown_Score<br />norm(Max_Drawdown)<br />↑ less negative = better</span></div></foreignObject></g></g><g transform="translate(975.80078125, 194)" data-id="NM" data-node="true" id="flowchart-NM-9" class="node default norm flowchart-label"><rect height="71" width="163.1328125" y="-35.5" x="-81.56640625" ry="0" rx="0" style="" class="basic label-container"/><g transform="translate(-74.06640625, -28)" style="" class="label"><rect/><foreignObject height="56" width="148.1328125"><div style="display: inline-block; white-space: nowrap;" xmlns="http://www.w3.org/1999/xhtml"><span class="nodeLabel">Momentum_Score<br />rank(pct=True)<br />↑ outlier-robust rank</span></div></foreignObject></g></g><g transform="translate(116.56640625, 41.75)" data-id="AR" data-node="true" id="flowchart-AR-0" class="node default raw flowchart-label"><rect height="33.5" width="119.6171875" y="-16.75" x="-59.80859375" ry="0" rx="0" style="" class="basic label-container"/><g transform="translate(-52.30859375, -9.25)" style="" class="label"><rect/><foreignObject height="18.5" width="104.6171875"><div style="display: inline-block; white-space: nowrap;" xmlns="http://www.w3.org/1999/xhtml"><span class="nodeLabel">Annual_Return</span></div></foreignObject></g></g><g transform="translate(325.3828125, 41.75)" data-id="VO" data-node="true" id="flowchart-VO-1" class="node default raw flowchart-label"><rect height="33.5" width="79.5" y="-16.75" x="-39.75" ry="0" rx="0" style="" class="basic label-container"/><g transform="translate(-32.25, -9.25)" style="" class="label"><rect/><foreignObject height="18.5" width="64.5"><div style="display: inline-block; white-space: nowrap;" xmlns="http://www.w3.org/1999/xhtml"><span class="nodeLabel">Volatility</span></div></foreignObject></g></g><g transform="translate(531.57421875, 41.75)" data-id="SR" data-node="true" id="flowchart-SR-2" class="node default raw flowchart-label"><rect height="33.5" width="109.3046875" y="-16.75" x="-54.65234375" ry="0" rx="0" style="" class="basic label-container"/><g transform="translate(-47.15234375, -9.25)" style="" class="label"><rect/><foreignObject height="18.5" width="94.3046875"><div style="display: inline-block; white-space: nowrap;" xmlns="http://www.w3.org/1999/xhtml"><span class="nodeLabel">Sharpe_Ratio</span></div></foreignObject></g></g><g transform="translate(752.375, 41.75)" data-id="DR" data-node="true" id="flowchart-DR-3" class="node default raw flowchart-label"><rect height="33.5" width="125.65625" y="-16.75" x="-62.828125" ry="0" rx="0" style="" class="basic label-container"/><g transform="translate(-55.328125, -9.25)" style="" class="label"><rect/><foreignObject height="18.5" width="110.65625"><div style="display: inline-block; white-space: nowrap;" xmlns="http://www.w3.org/1999/xhtml"><span class="nodeLabel">Max_Drawdown</span></div></foreignObject></g></g><g transform="translate(975.80078125, 41.75)" data-id="MO" data-node="true" id="flowchart-MO-4" class="node default raw flowchart-label"><rect height="33.5" width="148.0859375" y="-16.75" x="-74.04296875" ry="0" rx="0" style="" class="basic label-container"/><g transform="translate(-66.54296875, -9.25)" style="" class="label"><rect/><foreignObject height="18.5" width="133.0859375"><div style="display: inline-block; white-space: nowrap;" xmlns="http://www.w3.org/1999/xhtml"><span class="nodeLabel">Recent_3M_Return</span></div></foreignObject></g></g><g transform="translate(531.57421875, 415)" data-id="FORMULA" data-node="true" id="flowchart-FORMULA-10" class="node default weight flowchart-label"><rect height="221" width="389.0859375" y="-110.5" x="-194.54296875" ry="0" rx="0" style="" class="basic label-container"/><g transform="translate(-187.04296875, -103)" style="" class="label"><rect/><foreignObject height="206" width="374.0859375"><div style="display: inline-block; white-space: nowrap;" xmlns="http://www.w3.org/1999/xhtml"><span class="nodeLabel">Step 2 — Weighted Sum<br />─────────────────────────────────<br />Composite_Score =<br />  0.20 × Return_Score<br />+ 0.15 × Vol_Score<br />+ 0.25 × Sharpe_Score<br />+ 0.20 × Drawdown_Score<br />+ 0.20 × Momentum_Score<br />─────────────────────────────────<br />norm(x) = (x − min) / (max − min)<br />if range = 0  →  score = 0.5</span></div></foreignObject></g></g><g transform="translate(531.57421875, 601.5)" data-id="RANK" data-node="true" id="flowchart-RANK-11" class="node default out flowchart-label"><rect height="52" width="210.6171875" y="-26" x="-105.30859375" ry="0" rx="0" style="" class="basic label-container"/><g transform="translate(-97.80859375, -18.5)" style="" class="label"><rect/><foreignObject height="37" width="195.6171875"><div style="display: inline-block; white-space: nowrap;" xmlns="http://www.w3.org/1999/xhtml"><span class="nodeLabel">Sort descending<br />Rank 1 = highest composite</span></div></foreignObject></g></g></g></g></g><text class="flowchartTitleText" y="-25" x="546.18359375">Composite Scoring — Normalise then Weighted Sum</text></svg>